{"title":"Lost Highway 1997 BRRip 720p x264 AAC - PRiSTiNE [P2PDL]","uid":8298479,"size":792755398,"categoryP":"video","categoryS":"hd___movies","magnet":"?xt=urn:btih:23a7716ff0eb5db005d1f17169a65d3b898f42b0&amp;dn=Lost+Highway+1997+BRRip+720p+x264+AAC+-+PRiSTiNE+%5BP2PDL%5D&amp;tr=udp%3A%2F%2Ftracker.openbittorrent.com%3A80&amp;tr=udp%3A%2F%2Fopen.demonii.com%3A1337&amp;tr=udp%3A%2F%2Ftracker.coppersurfer.tk%3A6969&amp;tr=udp%3A%2F%2Fexodus.desync.com%3A6969","seeders":4,"leechers":0,"uploader":"Vitamin_X","files":-1,"time":1364206880,"description":"_________________________  Visit us at _________________________\n  &lt;a href=&quot;\nhttp://p2pdl.com&quot; rel=&quot;nofollow&quot; target=&quot;_NEW&quot;&gt;\nhttp://p2pdl.com&lt;/a&gt;  ____________________________ &lt;a href=&quot; http://p2pdl.com&quot; rel=&quot;nofollow&quot; target=&quot;_NEW&quot;&gt; http://p2pdl.com&lt;/a&gt;\n\n\nLost Highway 1997 BRRip 720p x264 AAC - PRiSTiNE\n\nGenre: Drama | Mystery | Thriller\nPlot: After a bizarre encounter at a party, a jazz \nsaxophonist is framed for the murder of his wife \nand sent to prison, where he inexplicably morphs \ninto a young mechanic and begins leading a new life.\nDirector: David Lynch\nStars: Bill Pullman, Patricia Arquette, John Roselius\nRated: Rated R for bizarre violent and sexual content, and for strong language\n\nInfo: &lt;a href=&quot;\nhttp://www.imdb.com/title/tt0116922/&quot; rel=&quot;nofollow&quot; target=&quot;_NEW&quot;&gt;\nhttp://www.imdb.com/title/tt0116922/&lt;/a&gt;\n\nGeneral\nComplete name                  : Lost Highway 1997 BRRip 720p x264 AAC - PRiSTiNE.mp4\nFormat                         : MPEG-4\nFormat profile                 : Base Media\nCodec ID                       : isom\nFile size                      : 750 MiB\nDuration                       : 2h 14mn\nOverall bit rate mode          : Variable\nOverall bit rate               : 782 Kbps\n\nSource                         : 720p BluRay HighCode (Thanks)\n\nVideo\nFormat                         : AVC\nFormat/Info                    : Advanced Video Codec\nFormat profile                 : &lt;a class=&quot;__cf_email__&quot; href=&quot;/cdn-cgi/l/email-protection&quot; data-cfemail=&quot;aae2c3cdc2eae69e849b&quot;&gt;[email&amp;#160;protected]&lt;/a&gt;&lt;script cf-hash='f9e31' type=&quot;text/javascript&quot;&gt;\n/* &lt;![CDATA[ */!function(){try{var t=&quot;currentScript&quot;in document?document.currentScript:function(){for(var t=document.getElementsByTagName(&quot;script&quot;),e=t.length;e--;)if(t[e].getAttribute(&quot;cf-hash&quot;))return t[e]}();if(t&amp;&amp;t.previousSibling){var e,r,n,i,c=t.previousSibling,a=c.getAttribute(&quot;data-cfemail&quot;);if(a){for(e=&quot;&quot;,r=parseInt(a.substr(0,2),16),n=2;a.length-n;n+=2)i=parseInt(a.substr(n,2),16)^r,e+=String.fromCharCode(i);e=document.createTextNode(e),c.parentNode.replaceChild(e,c)}}}catch(u){}}();/* ]]&gt; */&lt;/script&gt;\nFormat settings, CABAC         : Yes\nBit rate                       : 699 Kbps\nWidth                          : 1 280 pixels\nHeight                         : 544 pixels\nDisplay aspect ratio           : 2.35:1\nFrame rate mode                : Constant\nFrame rate                     : 24.000 fps\nBit depth                      : 8 bits\nStream size                    : 671 MiB (89%)\nWriting library                : x264 core 129 r2245 bc13772\n\nAudio\nFormat                         : AAC\nBit rate mode                  : Variable\nBit rate                       : 80.0 Kbps\nChannel(s)                     : 2 channels\nChannel positions              : Front: L R\nSampling rate                  : 48.0 KHz / 24.0 KHz\nStream size                    : 76.7 MiB (10%)\nLanguage                       : English\n\n\nSubtitle                       : Yes (English)\n\nScreens: &lt;a href=&quot;\nhttp://imgr.us/images/augh645d1mq8gx1kr5m.jpg&quot; rel=&quot;nofollow&quot; target=&quot;_NEW&quot;&gt;\nhttp://imgr.us/images/augh645d1mq8gx1kr5m.jpg&lt;/a&gt; &lt;a href=&quot;\nhttp://imgr.us/images/lifkqznlwudsoeqirt8z.jpg&quot; rel=&quot;nofollow&quot; target=&quot;_NEW&quot;&gt;\nhttp://imgr.us/images/lifkqznlwudsoeqirt8z.jpg&lt;/a&gt; &lt;a href=&quot;\nhttp://imgr.us/images/1r0c02a17r6b8hi6062g.jpg&quot; rel=&quot;nofollow&quot; target=&quot;_NEW&quot;&gt;\nhttp://imgr.us/images/1r0c02a17r6b8hi6062g.jpg&lt;/a&gt; &lt;a href=&quot;\nhttp://imgr.us/images/oarep0yjlqma7dzsmmh.jpg&quot; rel=&quot;nofollow&quot; target=&quot;_NEW&quot;&gt;\nhttp://imgr.us/images/oarep0yjlqma7dzsmmh.jpg&lt;/a&gt; &lt;a href=&quot;\nhttp://imgr.us/images/cmbo7xkyhfxfo8lx2ks.jpg&quot; rel=&quot;nofollow&quot; target=&quot;_NEW&quot;&gt;\nhttp://imgr.us/images/cmbo7xkyhfxfo8lx2ks.jpg&lt;/a&gt;\n----------------------------------------------------------------------------------------------------\nEncoded using revolutionary 10bit encoding, which enables us to provide you more crispier \nand sharper images at small sizes, just make sure you follow our instructions without a fault.\nRecommend to you to use latest version of VLC player. Install K-Lite Codec Pack or shark007 codecs\nin case of any kind of problem in playback (For non-VLC Media Player users). Alternatively, install\nCore AVC codecs, the fastest decoder that there is coupled with Community Center Codec Pack and play\non Windows Media Player Classic. Check sample to be sure.\nEnjoy!\n\nEncoder Notes:Looking For Early Access To Anything You Can Provide DVDScr, R5, DVDR, BluRay, Direct\nAudio, Music Releases and Seedboxes. We require dedicated servers, so as to do more \nand fast releases of movies.\nIf You Got anything to offer please contact us at &quot;&lt;a class=&quot;__cf_email__&quot; href=&quot;/cdn-cgi/l/email-protection&quot; data-cfemail=&quot;a2d2d0c5e2cad7d1ca8cc1cdcf&quot;&gt;[email&amp;#160;protected]&lt;/a&gt;&lt;script cf-hash='f9e31' type=&quot;text/javascript&quot;&gt;\n/* &lt;![CDATA[ */!function(){try{var t=&quot;currentScript&quot;in document?document.currentScript:function(){for(var t=document.getElementsByTagName(&quot;script&quot;),e=t.length;e--;)if(t[e].getAttribute(&quot;cf-hash&quot;))return t[e]}();if(t&amp;&amp;t.previousSibling){var e,r,n,i,c=t.previousSibling,a=c.getAttribute(&quot;data-cfemail&quot;);if(a){for(e=&quot;&quot;,r=parseInt(a.substr(0,2),16),n=2;a.length-n;n+=2)i=parseInt(a.substr(n,2),16)^r,e+=String.fromCharCode(i);e=document.createTextNode(e),c.parentNode.replaceChild(e,c)}}}catch(u){}}();/* ]]&gt; */&lt;/script&gt;&quot;.","torrent":{"xt":"urn:btih:23a7716ff0eb5db005d1f17169a65d3b898f42b0","amp;dn":"Lost+Highway+1997+BRRip+720p+x264+AAC+-+PRiSTiNE+%5BP2PDL%5D","amp;tr":["udp%3A%2F%2Ftracker.openbittorrent.com%3A80","udp%3A%2F%2Fopen.demonii.com%3A1337","udp%3A%2F%2Ftracker.coppersurfer.tk%3A6969","udp%3A%2F%2Fexodus.desync.com%3A6969"],"infoHash":"23a7716ff0eb5db005d1f17169a65d3b898f42b0","infoHashBuffer":{"type":"Buffer","data":[35,167,113,111,240,235,93,176,5,209,241,113,105,166,93,59,137,143,66,176]},"announce":[],"urlList":[]}}